<svg width="258" height="202" viewBox="0 0 258 202" fill="none" xmlns="http://www.w3.org/2000/svg">
<path opacity="0.65" d="M252.911 123.053L249.011 121.953C251.911 114.353 254.911 103.253 252.111 94.6535C250.611 89.9535 247.611 86.5535 243.011 84.2535C220.311 73.2535 153.311 93.5535 133.811 99.8535C130.511 100.953 128.511 101.553 128.411 101.653L127.111 98.0535L127.011 97.8535C130.611 96.5535 216.611 67.0535 244.611 80.6535C250.211 83.3535 254.011 87.6535 255.811 93.4535C259.011 103.153 255.911 114.953 252.911 123.053Z" fill="#00CBD8"/>
<path opacity="0.99" d="M184.911 179.554L188.111 180.454V117.454L192.111 118.554V181.554L195.311 182.454L189.711 192.054L184.911 179.554Z" fill="#00CBD8"/>
<path opacity="0.99" d="M200.011 169.154L203.211 170.054V121.354L207.211 122.454V171.154L210.411 172.054L204.911 181.754L200.011 169.154Z" fill="#00CBD8"/>
<path opacity="0.99" d="M212.611 154.553L215.811 155.453V124.753L219.811 125.853V156.553L223.111 157.453L217.511 167.153L212.611 154.553Z" fill="#00CBD8"/>
<path opacity="0.99" d="M169.911 161.654L173.111 162.554V113.354L177.111 114.354V163.654L180.311 164.554L174.711 174.254L169.911 161.654Z" fill="#00CBD8"/>
<path opacity="0.99" d="M153.511 138.554L156.711 139.454V108.854L160.711 109.954V140.554L163.911 141.454L158.411 151.054L153.511 138.554Z" fill="#00CBD8"/>
<path opacity="0.99" d="M140.611 113.554L143.811 114.454V105.354L147.811 106.454V115.554L151.111 116.454L145.511 126.054L140.611 113.554Z" fill="#00CBD8"/>
<path d="M67.711 85.4535L64.011 84.3535L23.611 106.154L20.311 105.254L17.311 111.854L31.311 108.254L27.411 107.154L67.711 85.4535Z" fill="#009CA0"/>
<path d="M24.8111 96.3534L28.7111 97.4534L14.7111 101.053L17.7111 94.4534L21.0111 95.3534L50.8111 79.2534L54.2111 80.1534L54.6111 80.2534L24.8111 96.3534Z" fill="#009CA0"/>
<path d="M53.111 103.954L57.011 104.954L43.011 108.654L46.011 101.954L49.311 102.854L79.011 86.9536L79.511 87.0536L82.711 87.9536L53.111 103.954Z" fill="#009CA0"/>
<path d="M24.411 86.7536L28.311 87.8536L14.311 91.4536L17.311 84.8536L20.611 85.7536L38.811 75.9536L41.511 76.7536L42.611 76.9536L24.411 86.7536Z" fill="#009CA0"/>
<path d="M80.2111 102.153L84.1111 103.253L70.2111 106.953L73.1111 100.253L76.4111 101.153L94.8111 91.2534L95.9111 91.5534L98.6111 92.2534L80.2111 102.153Z" fill="#009CA0"/>
<path d="M104.111 101.153L107.911 102.153L94.011 105.853L97.011 99.1533L100.311 100.053L109.511 95.1533L113.311 96.1533L104.111 101.153Z" fill="#009CA0"/>
<path d="M20.411 78.1535L24.311 79.2535L10.311 82.8535L13.311 76.2535L16.611 77.1535L25.511 72.3535L27.911 72.9535L29.311 73.3535L20.411 78.1535Z" fill="#009CA0"/>
<path opacity="0.65" d="M130.111 101.853C129.911 101.953 129.311 102.153 128.411 102.453C118.111 105.953 66.811 122.653 33.311 122.653C25.011 122.653 17.711 121.653 12.511 119.053C6.91103 116.353 3.11103 112.053 1.31103 106.253C-2.98897 92.9534 4.41103 75.5534 7.41103 69.4534C8.01103 68.2534 8.41103 67.4534 8.51103 67.2534L10.111 68.1534L12.011 69.1534C12.011 69.1534 11.711 69.6534 11.311 70.5534C8.81103 75.5534 1.11103 92.7534 5.11103 105.153C6.61103 109.853 9.61103 113.253 14.211 115.553C36.111 126.253 99.511 107.553 121.311 100.653C123.111 100.053 124.611 99.6534 125.711 99.2534C126.811 98.8534 127.611 98.6534 128.111 98.4534C128.411 98.3534 128.611 98.2534 128.711 98.2534L128.811 98.6534L129.711 101.253L130.111 101.853Z" fill="#00CBD8"/>
<path d="M187.411 116.454L191.211 117.454L231.511 95.6536L234.811 96.5536L237.811 89.9536L223.911 93.6536L227.711 94.6536L187.411 116.454Z" fill="#009CA0"/>
<path d="M232.411 103.353L228.511 102.353L242.511 98.6533L239.511 105.353L236.211 104.453L206.411 120.453L203.011 119.553L202.611 119.453L232.411 103.353Z" fill="#009CA0"/>
<path d="M204.111 95.7537L200.211 94.7537L214.211 91.0537L211.211 97.7537L207.911 96.8537L178.211 112.854L177.711 112.654L174.511 111.754L204.111 95.7537Z" fill="#009CA0"/>
<path d="M234.311 113.953L230.411 112.853L244.411 109.253L241.411 115.853L238.111 114.953L219.911 124.753L217.211 123.953L216.111 123.753L234.311 113.953Z" fill="#009CA0"/>
<path d="M177.011 97.5535L173.111 96.4535L187.011 92.8535L184.111 99.4535L180.811 98.5535L162.411 108.454L161.311 108.154L158.611 107.454L177.011 97.5535Z" fill="#009CA0"/>
<path d="M153.711 98.6536L149.811 97.5536L163.811 93.9536L160.811 100.554L157.511 99.6536L148.311 104.654L144.511 103.554L153.711 98.6536Z" fill="#009CA0"/>
<path d="M235.611 150.054C224.311 171.654 207.011 200.254 187.611 197.354C159.211 193.154 136.211 120.754 131.111 103.254L234.011 131.354L235.111 127.554L133.811 99.8536L129.911 98.7536C125.711 84.1536 101.711 4.95357 69.611 0.25357C44.211 -3.54643 24.211 36.2536 12.311 59.9536C11.211 62.1536 10.211 64.1536 9.31099 65.8536C9.01099 66.3536 8.81099 66.8536 8.61099 67.2536C8.51099 67.4536 8.11099 68.2536 7.51099 69.4536L11.411 70.5536L121.411 100.554L126.611 101.954C130.111 114.454 154.411 196.354 187.111 201.254C188.211 201.454 189.411 201.554 190.511 201.554C211.211 201.554 228.111 173.354 239.611 151.054L235.611 150.054ZM13.211 66.9536C14.011 65.3536 14.911 63.6536 15.811 61.7536C26.511 40.4536 46.411 0.85357 69.011 4.15357C97.011 8.35357 119.811 78.8536 125.311 97.5536L13.211 66.9536Z" fill="#00CBD8"/>
<path opacity="0.99" d="M71.5111 21.9535L68.3111 21.0535V84.0535L64.3111 82.9535V19.9535L61.1111 19.0535L66.7111 9.35352L71.5111 21.9535Z" fill="#00CBD8"/>
<path opacity="0.99" d="M57.411 32.2534L54.211 31.4534V80.1534L50.211 79.0534V30.3534L46.911 29.4534L52.511 19.7534L57.411 32.2534Z" fill="#00CBD8"/>
<path opacity="0.99" d="M44.811 46.8535L41.511 46.0535V76.7535L37.511 75.6535V44.9535L34.311 44.0535L39.911 34.3535L44.811 46.8535Z" fill="#00CBD8"/>
<path opacity="0.99" d="M31.1111 64.7534L27.9111 63.8534V72.9534L23.9111 71.8534V62.7534L20.7111 61.8534L26.3111 52.2534L31.1111 64.7534Z" fill="#00CBD8"/>
<path opacity="0.99" d="M86.811 39.7534L83.511 38.9534V88.1534L79.511 87.0534V37.8534L76.311 36.9534L81.911 27.2534L86.811 39.7534Z" fill="#00CBD8"/>
<path opacity="0.99" d="M103.111 62.9535L99.9111 62.0535V92.6535L95.9111 91.5535V60.9535L92.7111 60.0535L98.3111 50.3535L103.111 62.9535Z" fill="#00CBD8"/>
<path opacity="0.99" d="M116.011 87.9535L112.811 87.0535V96.1535L108.811 95.0535V85.9535L105.611 85.0535L111.211 75.3535L116.011 87.9535Z" fill="#00CBD8"/>
</svg>
