<svg width="214" height="214" viewBox="0 0 214 214" fill="none" xmlns="http://www.w3.org/2000/svg">
<path fill-rule="evenodd" clip-rule="evenodd" d="M107 3.22021C95.2544 3.22021 85.6987 12.7759 85.6987 24.5214C85.6987 36.2661 95.2544 45.8218 107 45.8218C118.745 45.8218 128.301 36.2661 128.301 24.5214C128.301 12.7759 118.745 3.22021 107 3.22021ZM107 49.0422C93.4793 49.0422 82.4791 38.042 82.4791 24.5213C82.4791 10.9999 93.4793 0.000488281 107 0.000488281C120.521 0.000488281 131.521 10.9999 131.521 24.5213C131.521 38.042 120.521 49.0422 107 49.0422Z" fill="#00E4F2"/>
<path fill-rule="evenodd" clip-rule="evenodd" d="M189.479 85.6992C177.734 85.6992 168.178 95.2549 168.178 107C168.178 118.745 177.734 128.301 189.479 128.301C201.225 128.301 210.78 118.745 210.78 107C210.78 95.2549 201.225 85.6992 189.479 85.6992ZM189.479 131.521C175.959 131.521 164.958 120.521 164.958 107C164.958 93.4789 175.959 82.4795 189.479 82.4795C203 82.4795 214 93.4789 214 107C214 120.521 203 131.521 189.479 131.521Z" fill="#00E4F2"/>
<path fill-rule="evenodd" clip-rule="evenodd" d="M24.5209 85.6992C12.7754 85.6992 3.21973 95.2549 3.21973 107C3.21973 118.745 12.7754 128.301 24.5209 128.301C36.2664 128.301 45.8221 118.745 45.8221 107C45.8221 95.2549 36.2664 85.6992 24.5209 85.6992ZM24.5208 131.521C11.0002 131.521 0 120.521 0 107C0 93.4789 11.0002 82.4795 24.5208 82.4795C38.0415 82.4795 49.0417 93.4789 49.0417 107C49.0417 120.521 38.0415 131.521 24.5208 131.521Z" fill="#00E4F2"/>
<path fill-rule="evenodd" clip-rule="evenodd" d="M107 168.178C95.2544 168.178 85.6987 177.734 85.6987 189.479C85.6987 201.225 95.2544 210.781 107 210.781C118.745 210.781 128.301 201.225 128.301 189.479C128.301 177.734 118.745 168.178 107 168.178ZM107 214C93.4793 214 82.4791 203 82.4791 189.479C82.4791 175.959 93.4793 164.958 107 164.958C120.521 164.958 131.521 175.959 131.521 189.479C131.521 203 120.521 214 107 214Z" fill="#00E4F2"/>
<mask id="mask0" mask-type="alpha" maskUnits="userSpaceOnUse" x="0" y="0" width="214" height="215">
<path fill-rule="evenodd" clip-rule="evenodd" d="M0 107V214H214V107V0.000488281H0V107Z" fill="white"/>
</mask>
<g mask="url(#mask0)">
<path fill-rule="evenodd" clip-rule="evenodd" d="M24.5209 3.22021C12.7754 3.22021 3.21973 12.7759 3.21973 24.5214C3.21973 36.2661 12.7754 45.8218 24.5209 45.8218C36.2664 45.8218 45.8221 36.2661 45.8221 24.5214C45.8221 12.7759 36.2664 3.22021 24.5209 3.22021ZM189.479 3.22021C177.734 3.22021 168.178 12.7759 168.178 24.5214C168.178 36.2661 177.734 45.8218 189.479 45.8218C201.225 45.8218 210.78 36.2661 210.78 24.5214C210.78 12.7759 201.225 3.22021 189.479 3.22021ZM107 67.3701C85.1482 67.3701 67.3706 85.1477 67.3706 107C67.3706 128.852 85.1482 146.63 107 146.63C128.852 146.63 146.629 128.852 146.629 107C146.629 85.1477 128.852 67.3701 107 67.3701ZM24.5209 168.179C12.7754 168.179 3.21973 177.734 3.21973 189.48C3.21973 201.225 12.7754 210.78 24.5209 210.78C36.2664 210.78 45.8221 201.225 45.8221 189.48C45.8221 177.734 36.2664 168.179 24.5209 168.179ZM189.479 168.179C177.734 168.179 168.178 177.734 168.178 189.48C168.178 201.225 177.734 210.78 189.479 210.78C201.225 210.78 210.78 201.225 210.78 189.48C210.78 177.734 201.225 168.179 189.479 168.179ZM189.479 214C175.959 214 164.958 203 164.958 189.48C164.958 184.413 166.54 179.514 169.53 175.312L170.988 173.264L136.051 138.327L133.969 140.029C126.112 146.454 116.786 149.85 107 149.85C97.214 149.85 87.8879 146.454 80.0308 140.029L77.9488 138.327L43.0118 173.264L44.4696 175.312C47.4604 179.514 49.0417 184.413 49.0417 189.48C49.0417 203 38.0415 214 24.5208 214C11.0002 214 0 203 0 189.48C0 175.958 11.0002 164.959 24.5208 164.959C29.587 164.959 34.486 166.539 38.6872 169.531L40.7358 170.989L75.6735 136.051L73.9712 133.969C67.546 126.113 64.1502 116.787 64.1502 107C64.1502 97.213 67.546 87.8876 73.9712 80.0313L75.6735 77.9492L40.7351 43.0115L38.6872 44.4694C34.486 47.4609 29.587 49.0422 24.5208 49.0422C11.0002 49.0422 0 38.042 0 24.5213C0 10.9999 11.0002 0.000488281 24.5208 0.000488281C38.0415 0.000488281 49.0417 10.9999 49.0417 24.5213C49.0417 29.5867 47.4604 34.4857 44.4696 38.6877L43.0118 40.7355L77.9488 75.6733L80.0308 73.9709C87.8871 67.5465 97.2132 64.1507 107 64.1507C116.787 64.1507 126.113 67.5465 133.969 73.9709L136.051 75.6733L170.988 40.7355L169.53 38.6877C166.54 34.4857 164.958 29.5867 164.958 24.5213C164.958 10.9999 175.959 0.000488281 189.479 0.000488281C203 0.000488281 214 10.9999 214 24.5213C214 38.042 203 49.0422 189.479 49.0422C184.413 49.0422 179.514 47.4609 175.313 44.4694L173.264 43.0115L138.326 77.9492L140.029 80.0313C146.454 87.8876 149.85 97.213 149.85 107C149.85 116.787 146.454 126.113 140.029 133.969L138.326 136.051L173.264 170.989L175.312 169.531C179.515 166.539 184.414 164.959 189.479 164.959C203 164.959 214 175.958 214 189.48C214 203 203 214 189.479 214Z" fill="#00E4F2"/>
</g>
<mask id="mask1" mask-type="alpha" maskUnits="userSpaceOnUse" x="83" y="91" width="48" height="33">
<path fill-rule="evenodd" clip-rule="evenodd" d="M83 91V124H107H131V91H83Z" fill="white"/>
</mask>
<g mask="url(#mask1)">
<path fill-rule="evenodd" clip-rule="evenodd" d="M131 107.378C131 101.099 128.365 95.4092 124.099 91.2626C123.758 90.9361 123.207 90.9361 122.866 91.2626L115.854 97.9333C115.522 98.2515 115.513 98.7658 115.835 99.0918C115.871 99.1216 115.904 99.1532 115.94 99.1875C116.453 99.6436 116.923 100.137 117.356 100.67V100.672C117.42 100.752 117.48 100.829 117.539 100.908C117.539 100.911 117.542 100.911 117.542 100.911C117.965 101.46 118.342 102.043 118.666 102.658C118.716 102.753 118.766 102.849 118.816 102.947V102.95C119.123 103.571 119.381 104.22 119.58 104.891C119.578 104.893 119.578 104.893 119.58 104.896C119.616 105.018 119.65 105.142 119.683 105.265V105.267C119.866 105.962 119.985 106.678 120.037 107.415C120.048 107.558 120.057 107.704 120.06 107.85V107.855C120.068 108.004 120.071 108.15 120.071 108.298C120.071 108.876 120.029 109.446 119.949 110.002C119.929 110.156 119.905 110.31 119.874 110.461C119.755 111.119 119.58 111.758 119.359 112.376C119.303 112.533 119.242 112.686 119.178 112.84C118.918 113.479 118.605 114.091 118.242 114.672C118.156 114.815 118.065 114.953 117.971 115.091C117.971 115.091 117.968 115.091 117.968 115.094C117.722 115.462 117.45 115.815 117.162 116.157L98.8191 98.5936L91.145 91.2438C90.8263 90.9389 90.3249 90.9205 89.9813 91.1857C89.9789 91.1857 89.9789 91.1857 89.9761 91.1884C89.9536 91.204 89.9316 91.2228 89.9096 91.2438C89.8761 91.2754 89.8483 91.3075 89.8211 91.3418C85.5986 95.4811 83 101.139 83 107.378C83 107.436 83 107.495 83.0029 107.553C83 107.566 83 107.582 83 107.596C83 107.624 83.0029 107.654 83.0057 107.68C83.0225 109.189 83.1938 110.661 83.5072 112.087V112.09C83.5431 112.259 83.5818 112.431 83.6234 112.598C83.9364 113.885 84.3603 115.126 84.8895 116.319V116.321C84.9866 116.544 85.089 116.767 85.1995 116.987V116.99C85.7287 118.095 86.3522 119.153 87.0531 120.155V120.158C87.222 120.397 87.3909 120.63 87.5713 120.86C88.3139 121.845 89.1421 122.77 90.0397 123.629C90.0923 123.679 90.1478 123.729 90.2005 123.777L90.2029 123.78C90.3608 123.894 90.5579 123.952 90.7407 123.952C90.9651 123.952 91.1866 123.87 91.3584 123.706L97.4368 117.931C97.7498 117.631 97.7746 117.162 97.5115 116.836C97.4727 116.799 97.434 116.759 97.3976 116.719C97.3976 116.719 97.3976 116.717 97.3952 116.717C95.2756 114.497 93.9818 111.543 93.9818 108.298C93.9818 104.981 95.334 101.966 97.5392 99.7311L115.973 117.382L122.597 123.756C122.653 123.809 122.714 123.852 122.778 123.886C122.913 123.963 123.066 124 123.215 124C123.295 124 123.378 123.989 123.456 123.968C123.581 123.934 123.697 123.875 123.8 123.785C123.811 123.777 123.822 123.766 123.833 123.756C123.838 123.751 123.841 123.748 123.844 123.743C123.85 123.74 123.852 123.738 123.852 123.735C123.946 123.645 124.044 123.552 124.138 123.459V123.456C124.98 122.637 125.758 121.754 126.462 120.821V120.818C126.634 120.59 126.803 120.362 126.963 120.126L126.966 120.124C127.687 119.092 128.324 118.005 128.864 116.865C128.969 116.642 129.072 116.417 129.168 116.189C129.676 115.027 130.083 113.816 130.385 112.564V112.561C130.426 112.392 130.465 112.222 130.504 112.05V112.047C130.809 110.634 130.978 109.176 130.994 107.68C130.997 107.654 131 107.624 131 107.596C131 107.582 131 107.566 130.997 107.553C131 107.495 131 107.436 131 107.378Z" fill="#00E4F2"/>
</g>
</svg>
