<svg width="72" height="72" viewBox="0 0 72 72" fill="none" xmlns="http://www.w3.org/2000/svg">
<path fill-rule="evenodd" clip-rule="evenodd" d="M48.6774 20.5161C48.6774 23.0103 42.0342 25.0323 33.8387 25.0323C25.6432 25.0323 19 23.0103 19 20.5161C19 18.0219 25.6432 16 33.8387 16C42.0342 16 48.6774 18.0219 48.6774 20.5161Z" stroke="#00E3F1" stroke-linejoin="round"/>
<path d="M33.8387 32.7742C25.6432 32.7742 19 30.7522 19 28.258V20.5161" stroke="#00E3F1" stroke-linejoin="round"/>
<path d="M48.6774 20.5161V26.9677" stroke="#00E3F1" stroke-linejoin="round"/>
<path d="M33.8387 40.5161C25.6432 40.5161 19 38.4942 19 36V31.4839" stroke="#00E3F1" stroke-linejoin="round"/>
<path d="M33.8387 48.2578C25.6432 48.2578 19 46.2359 19 43.7417V39.2256" stroke="#00E3F1" stroke-linejoin="round"/>
<path d="M41.5806 55.3375C39.3271 55.7581 36.6755 56 33.8387 56C25.6432 56 19 53.9781 19 51.4839V46.9678" stroke="#00E3F1" stroke-linejoin="round"/>
<path d="M33.8386 32.7744H35.1289" stroke="#00E3F1" stroke-linejoin="round"/>
<path d="M33.8386 40.5161H35.1289" stroke="#00E3F1" stroke-linejoin="round"/>
<path d="M33.8386 48.2583H35.1289" stroke="#00E3F1" stroke-linejoin="round"/>
<path fill-rule="evenodd" clip-rule="evenodd" d="M56.4193 48.2582L46.7419 56.0001L37.0645 48.2582V28.9033L42.2257 30.8388L44.1612 28.9033H49.3225L51.258 30.8388L56.4193 28.9033V48.2582Z" stroke="#00E3F1" stroke-linejoin="round"/>
<path d="M51.2581 36V37.2903" stroke="#00E3F1" stroke-linejoin="round"/>
<path d="M51.2581 43.7417V45.032" stroke="#00E3F1" stroke-linejoin="round"/>
<path d="M48.6774 36V37.2903" stroke="#00E3F1" stroke-linejoin="round"/>
<path d="M48.6774 38.5806V39.8709" stroke="#00E3F1" stroke-linejoin="round"/>
<path d="M48.6774 43.7417V45.032" stroke="#00E3F1" stroke-linejoin="round"/>
<path d="M48.6774 46.3228V47.6131" stroke="#00E3F1" stroke-linejoin="round"/>
<path d="M51.2581 38.5806V39.8709" stroke="#00E3F1" stroke-linejoin="round"/>
<path d="M42.2258 36V37.2903" stroke="#00E3F1" stroke-linejoin="round"/>
<path d="M42.2258 43.7417V45.032" stroke="#00E3F1" stroke-linejoin="round"/>
<path d="M44.8064 36V37.2903" stroke="#00E3F1" stroke-linejoin="round"/>
<path d="M44.8064 38.5806V39.8709" stroke="#00E3F1" stroke-linejoin="round"/>
<path d="M44.8064 43.7417V45.032" stroke="#00E3F1" stroke-linejoin="round"/>
<path d="M44.8064 46.3228V47.6131" stroke="#00E3F1" stroke-linejoin="round"/>
<path d="M42.2258 38.5806V39.8709" stroke="#00E3F1" stroke-linejoin="round"/>
<path d="M48.6774 41.1611V42.4515" stroke="#00E3F1" stroke-linejoin="round"/>
<path d="M51.2581 41.1611V42.4515" stroke="#00E3F1" stroke-linejoin="round"/>
<path d="M44.8064 41.1611V42.4515" stroke="#00E3F1" stroke-linejoin="round"/>
<path d="M42.2258 41.1611V42.4515" stroke="#00E3F1" stroke-linejoin="round"/>
<path d="M42.2258 30.8389V33.4195" stroke="#00E3F1" stroke-linejoin="round"/>
<path d="M51.2581 30.8389V33.4195" stroke="#00E3F1" stroke-linejoin="round"/>
<path d="M34.4839 28.9033H33.1936" stroke="#00E3F1" stroke-linejoin="round"/>
<path d="M34.4839 36.645H33.1936" stroke="#00E3F1" stroke-linejoin="round"/>
<path d="M34.4839 44.3872H33.1936" stroke="#00E3F1" stroke-linejoin="round"/>
<path d="M34.4839 52.1289H33.1936" stroke="#00E3F1" stroke-linejoin="round"/>
<path fill-rule="evenodd" clip-rule="evenodd" d="M36 71C55.33 71 71 55.33 71 36C71 16.67 55.33 1 36 1C16.67 1 1 16.67 1 36C1 55.33 16.67 71 36 71Z" stroke="#00E3F1"/>
</svg>
