<svg width="72" height="72" viewBox="0 0 72 72" fill="none" xmlns="http://www.w3.org/2000/svg">
<path fill-rule="evenodd" clip-rule="evenodd" d="M48.0969 36C48.0969 49.8073 42.6807 61 36.0001 61C29.3194 61 23.9033 49.8073 23.9033 36C23.9033 22.1927 29.3194 11 36.0001 11C42.6807 11 48.0969 22.1927 48.0969 36Z" stroke="#00E3F1"/>
<path fill-rule="evenodd" clip-rule="evenodd" d="M36 48.0969C22.1927 48.0969 11 42.6807 11 36.0001C11 29.3194 22.1927 23.9033 36 23.9033C49.8073 23.9033 61 29.3194 61 36.0001C61 42.6807 49.8073 48.0969 36 48.0969Z" stroke="#00E3F1"/>
<path fill-rule="evenodd" clip-rule="evenodd" d="M44.5535 44.5537C34.7906 54.3166 23.0462 58.4021 18.3229 53.6771C13.5979 48.9537 17.6833 37.2102 27.4462 27.4465C37.21 17.6836 48.9535 13.5981 53.6769 18.3231C58.4019 23.0465 54.3164 34.7908 44.5535 44.5537Z" stroke="#00E3F1"/>
<path fill-rule="evenodd" clip-rule="evenodd" d="M27.4465 44.5537C17.6836 34.7908 13.5981 23.0465 18.3231 18.3231C23.0465 13.5981 34.79 17.6836 44.5537 27.4465C54.3166 37.2102 58.4021 48.9537 53.6771 53.6771C48.9537 58.4021 37.2094 54.3166 27.4465 44.5537Z" stroke="#00E3F1"/>
<path fill-rule="evenodd" clip-rule="evenodd" d="M41.6451 31.1611C41.6451 32.4965 39.1176 33.5804 35.9999 33.5804C32.8822 33.5804 30.3547 32.4965 30.3547 31.1611C30.3547 29.8256 32.8822 28.7417 35.9999 28.7417C39.1176 28.7417 41.6451 29.8256 41.6451 31.1611Z" stroke="#00E3F1"/>
<path d="M41.6451 34.3872C41.6451 35.7227 39.1176 36.8066 35.9999 36.8066C32.8822 36.8066 30.3547 35.7227 30.3547 34.3872" stroke="#00E3F1"/>
<path d="M41.6451 37.6128C41.6451 38.9483 39.1176 40.0321 35.9999 40.0321C32.8822 40.0321 30.3547 38.9483 30.3547 37.6128" stroke="#00E3F1"/>
<path d="M41.6451 31.1611V40.8386C41.6451 42.174 39.1176 43.2579 35.9999 43.2579C32.8822 43.2579 30.3547 42.174 30.3547 40.8386V31.1611" stroke="#00E3F1"/>
<path d="M49.7097 21.4839H51.3226" stroke="#00E3F1"/>
<path d="M49.7097 50.5161H51.3226" stroke="#00E3F1"/>
<path d="M20.6775 50.5161H22.2904" stroke="#00E3F1"/>
<path d="M20.6775 21.4839H22.2904" stroke="#00E3F1"/>
<path fill-rule="evenodd" clip-rule="evenodd" d="M36 71C55.33 71 71 55.33 71 36C71 16.67 55.33 1 36 1C16.67 1 1 16.67 1 36C1 55.33 16.67 71 36 71Z" stroke="#00E3F1"/>
</svg>
