<svg width="72" height="72" viewBox="0 0 72 72" fill="none" xmlns="http://www.w3.org/2000/svg">
<path fill-rule="evenodd" clip-rule="evenodd" d="M36 0.5C16.3938 0.5 0.5 16.394 0.5 36C0.5 55.606 16.3938 71.5 36 71.5C55.6061 71.5 71.5 55.606 71.5 36C71.5 16.394 55.6061 0.5 36 0.5ZM1.5 36C1.5 16.9463 16.9463 1.5 36 1.5C55.0538 1.5 70.5 16.9463 70.5 36C70.5 55.0537 55.0538 70.5 36 70.5C16.9463 70.5 1.5 55.0537 1.5 36ZM20.0161 34.2095H15.5V21.6611H36.4355V23.0967H37.4355V18.0806H14.5V34.9165L19.3091 39.7256H23.3872V38.7256H20.0161V34.2095ZM36.4355 20.6611H15.5V19.0806H36.4355V20.6611ZM19.0161 38.0186L16.207 35.2095H19.0161V38.0186ZM32.5645 24.5322H55.4999V46.1772H49.1935V45.1772H54.4999V28.1128H33.5645V33.4194H32.5645V24.5322ZM33.5645 27.1128H54.4999V25.5322H33.5645V27.1128ZM25.8225 50.9839H30.3386V55.5H46.7579V38.4355H25.8225V50.9839ZM25.8225 37.4355H46.7579V35.855H25.8225V37.4355ZM26.5295 51.9839L29.3386 54.793V51.9839H26.5295ZM47.7579 34.855H24.8225V51.6909L29.6316 56.5H47.7579V34.855ZM22.0967 25.5322H29.8386V24.5322H22.0967V25.5322ZM20.8064 25.5322H18.2258V24.5322H20.8064V25.5322ZM27.2581 28.1128H29.8386V27.1128H27.2581V28.1128ZM18.2258 28.1128V27.1128H25.9678V28.1128H18.2258ZM18.2258 30.6934H29.8386V29.6934H18.2258V30.6934ZM37.2271 31.8379C36.9097 31.52 36.7153 31.3389 36.2903 31.3389V30.3389C37.1426 30.3389 37.5933 30.7896 37.9199 31.1162L37.9341 31.1304C38.2517 31.4478 38.4458 31.6294 38.8708 31.6294C39.2957 31.6294 39.49 31.4478 39.8079 31.1304L39.822 31.1162C40.1489 30.7896 40.5996 30.3389 41.4515 30.3389C42.3035 30.3389 42.754 30.7896 43.0808 31.1162L43.0951 31.1304C43.4127 31.4478 43.6072 31.6294 44.0322 31.6294C44.4573 31.6294 44.6515 31.4478 44.9691 31.1304L44.9832 31.1162C45.3099 30.7896 45.7605 30.3389 46.6129 30.3389C47.4663 30.3389 47.9165 30.7896 48.243 31.1167L48.257 31.1309C48.5737 31.4478 48.7676 31.6294 49.1935 31.6294C49.6194 31.6294 49.8132 31.4478 50.1301 31.1309L50.144 31.1167C50.4706 30.7896 50.9207 30.3389 51.7742 30.3389V31.3389C51.3483 31.3389 51.1544 31.52 50.8375 31.8374L50.8236 31.8516C50.4971 32.1782 50.047 32.6294 49.1935 32.6294C48.34 32.6294 47.8899 32.1782 47.5634 31.8516L47.5494 31.8374C47.2327 31.52 47.0388 31.3389 46.6129 31.3389C46.1879 31.3389 45.9935 31.52 45.676 31.8379L45.6619 31.8516C45.3351 32.1787 44.8845 32.6294 44.0322 32.6294C43.1799 32.6294 42.7291 32.1787 42.4022 31.8516L42.3882 31.8379C42.0704 31.52 41.8762 31.3389 41.4515 31.3389C41.0269 31.3389 40.8324 31.52 40.5146 31.8379L40.5004 31.8521C40.1736 32.1787 39.7229 32.6294 38.8708 32.6294C38.0186 32.6294 37.5681 32.1787 37.2412 31.8516L37.2271 31.8379ZM31.1292 42.3062H44.0323V41.3062H31.1292V42.3062ZM28.5483 41.3062H29.8386V42.3062H28.5483V41.3062ZM31.1292 44.8872H44.0323V43.8872H31.1292V44.8872ZM28.5483 43.8872H29.8386V44.8872H28.5483V43.8872ZM31.1292 47.4678H44.0323V46.4678H31.1292V47.4678ZM28.5483 46.4678H29.8386V47.4678H28.5483V46.4678ZM44.0321 49.0483H38.8708V50.0483H44.0321V49.0483Z" fill="#00E3F1"/>
</svg>
