<?xml version="1.0" encoding="UTF-8" standalone="no"?>
<svg width="13px" height="622px" viewBox="0 0 13 622" version="1.1" xmlns="http://www.w3.org/2000/svg" xmlns:xlink="http://www.w3.org/1999/xlink">
    <!-- Generator: Sketch 49.2 (51160) - http://www.bohemiancoding.com/sketch -->
    <title>Combined Shape</title>
    <desc>Created with Sketch.</desc>
    <defs></defs>
    <g id="Skillbox.media" stroke="none" stroke-width="1" fill="none" fill-rule="evenodd">
        <g id="inner-skillbox.media" transform="translate(-336.000000, -7247.000000)" fill="#3D3BFF" fill-rule="nonzero">
            <g id="Зигзаг" transform="translate(336.000000, 7247.000000)">
                <path d="M5.53279636,468.358809 C5.53625962,469.105464 5.28466252,469.984423 4.68011746,470.928 C4.68011746,470.526045 4.68011746,470.11639 4.68011746,469.705525 C4.85883101,469.423648 5.03738071,469.141772 5.21578891,468.859895 C7.69955913,472.743228 10.1557928,476.626561 12.643825,480.509894 C13.118725,481.246963 13.118725,482.677744 12.643825,483.414812 C9.9770789,487.577083 7.34686356,491.739354 4.68011746,495.901625 C4.68011746,494.947771 4.68011746,493.95056 4.68011746,492.996707 C7.34686356,497.158977 9.9770789,501.321248 12.643825,505.483519 C13.118725,506.220587 13.118725,507.651368 12.643825,508.388437 C9.9770789,512.550708 7.34686356,516.712978 4.68011746,520.875249 C4.68011746,519.921395 4.68011746,518.924185 4.68011746,517.970331 C7.34686356,522.132602 9.9770789,526.294872 12.643825,530.457143 C13.118725,531.194212 13.118725,532.624992 12.643825,533.362061 C9.9770789,537.524332 7.34686356,541.686603 4.68011746,545.848873 C4.68011746,544.89502 4.68011746,543.897809 4.68011746,542.943955 C7.34686356,547.106226 9.9770789,551.268497 12.643825,555.430768 C13.118725,556.167836 13.118725,557.598617 12.643825,558.335686 C9.9770789,562.497956 7.34686356,566.660227 4.68011746,570.822498 C4.68011746,569.868644 4.68011746,568.871433 4.68011746,567.91758 C7.34686356,572.07985 9.9770789,576.242121 12.643825,580.404392 C13.118725,581.141461 13.118725,582.572241 12.643825,583.30931 C9.9770789,587.471581 7.34686356,591.633851 4.68011746,595.796122 C4.68011746,594.842269 4.68011746,593.845058 4.68011746,592.891204 C7.34686356,597.053475 9.9770789,601.215746 12.643825,605.378016 C13.118725,606.115085 13.118725,607.545866 12.643825,608.282934 C9.9770789,612.445205 7.34686356,616.607476 4.68011746,620.769747 C2.81704826,623.718022 -1.42052089,620.813104 0.479079073,617.864828 C3.14582518,613.702558 5.77604052,609.540287 8.44278662,605.378016 C8.44278662,606.33187 8.44278662,607.329081 8.44278662,608.282934 C5.77604052,604.120664 3.14582518,599.958393 0.479079073,595.796122 C0.00417908177,595.059053 0.00417908177,593.628273 0.479079073,592.891204 C3.14582518,588.728933 5.77604052,584.566663 8.44278662,580.404392 C8.44278662,581.358246 8.44278662,582.355456 8.44278662,583.30931 C5.77604052,579.147039 3.14582518,574.984769 0.479079073,570.822498 C0.00417908177,570.085429 0.00417908177,568.654648 0.479079073,567.91758 C3.14582518,563.755309 5.77604052,559.593038 8.44278662,555.430768 C8.44278662,556.384621 8.44278662,557.381832 8.44278662,558.335686 C5.77604052,554.173415 3.14582518,550.011144 0.479079073,545.848873 C0.00417908177,545.111805 0.00417908177,543.681024 0.479079073,542.943955 C3.14582518,538.781685 5.77604052,534.619414 8.44278662,530.457143 C8.44278662,531.410997 8.44278662,532.408208 8.44278662,533.362061 C5.77604052,529.19979 3.14582518,525.03752 0.479079073,520.875249 C0.00417908177,520.13818 0.00417908177,518.7074 0.479079073,517.970331 C3.14582518,513.80806 5.77604052,509.645789 8.44278662,505.483519 C8.44278662,506.437372 8.44278662,507.434583 8.44278662,508.388437 C5.77604052,504.226166 3.14582518,500.063895 0.479079073,495.901625 C0.00417908177,495.164556 0.00417908177,493.733775 0.479079073,492.996707 C3.14582518,488.834436 5.77604052,484.672165 8.44278662,480.509894 C8.44278662,481.463748 8.44278662,482.460959 8.44278662,483.414812 C5.77604052,479.252542 3.14582518,475.090271 0.479079073,470.928 C0.199308637,470.493782 0.0843550006,469.818808 0.134218165,469.186743 C-0.102006483,468.497013 -0.0489640534,467.678593 0.475065609,466.856811 C3.11947116,462.686471 5.72765198,458.51613 8.37205753,454.34579 C8.37205753,455.301493 8.37205753,456.300637 8.37205753,457.25634 C5.72765198,453.085999 3.11947116,448.915659 0.475065609,444.745318 C0.00414407169,444.006821 0.00414407169,442.573266 0.475065609,441.834768 C3.11947116,437.664428 5.72765198,433.494087 8.37205753,429.323747 C8.37205753,430.27945 8.37205753,431.278594 8.37205753,432.234297 C5.72765198,428.063956 3.11947116,423.893616 0.475065609,419.723275 C0.00414407169,418.984778 0.00414407169,417.551223 0.475065609,416.812725 C3.11947116,412.642385 5.72765198,408.472044 8.37205753,404.301704 C8.37205753,405.257407 8.37205753,406.256551 8.37205753,407.212254 C5.72765198,403.041913 3.11947116,398.871573 0.475065609,394.701232 C0.00414407169,393.962735 0.00414407169,392.52918 0.475065609,391.790682 C3.11947116,387.620342 5.72765198,383.450001 8.37205753,379.279661 C8.37205753,380.235364 8.37205753,381.234508 8.37205753,382.190211 C5.72765198,378.019871 3.11947116,373.84953 0.475065609,369.67919 C0.00414407169,368.940692 0.00414407169,367.507137 0.475065609,366.768639 C3.11947116,362.598299 5.72765198,358.427958 8.37205753,354.257618 C8.37205753,355.213321 8.37205753,356.212465 8.37205753,357.168168 C5.72765198,352.997828 3.11947116,348.827487 0.475065609,344.657147 C0.00414407169,343.918649 0.00414407169,342.485094 0.475065609,341.746596 C3.11947116,337.576256 5.72765198,333.405915 8.37205753,329.235575 C8.37205753,330.191278 8.37205753,331.190422 8.37205753,332.146125 C5.72765198,327.975785 3.11947116,323.805444 0.475065609,319.635104 C0.121259022,319.080265 0.0332697553,318.133093 0.211097807,317.383114 C-0.108747022,316.657234 -0.0996486601,315.763043 0.479079073,314.864828 C3.14582518,310.702558 5.77604052,306.540287 8.44278662,302.378016 C8.44278662,302.944941 8.44278662,303.527182 8.44278662,304.106533 C8.41885518,304.141295 8.39527331,304.176957 8.37205753,304.213532 C8.27019508,304.374173 8.16838637,304.534815 8.06662727,304.695456 C5.5284675,300.729012 3.0203604,296.762567 0.479079073,292.796122 C0.00417908177,292.059053 0.00417908177,290.628273 0.479079073,289.891204 C3.14582518,285.728933 5.77604052,281.566663 8.44278662,277.404392 C8.44278662,278.358246 8.44278662,279.355456 8.44278662,280.30931 C5.77604052,276.147039 3.14582518,271.984769 0.479079073,267.822498 C0.00417908177,267.085429 0.00417908177,265.654648 0.479079073,264.91758 C3.14582518,260.755309 5.77604052,256.593038 8.44278662,252.430768 C8.44278662,253.384621 8.44278662,254.381832 8.44278662,255.335686 C5.77604052,251.173415 3.14582518,247.011144 0.479079073,242.848873 C0.00417908177,242.111805 0.00417908177,240.681024 0.479079073,239.943955 C3.14582518,235.781685 5.77604052,231.619414 8.44278662,227.457143 C8.44278662,228.410997 8.44278662,229.408208 8.44278662,230.362061 C5.77604052,226.19979 3.14582518,222.03752 0.479079073,217.875249 C0.00417908177,217.13818 0.00417908177,215.7074 0.479079073,214.970331 C3.14582518,210.80806 5.77604052,206.645789 8.44278662,202.483519 C8.44278662,203.437372 8.44278662,204.434583 8.44278662,205.388437 C5.77604052,201.226166 3.14582518,197.063895 0.479079073,192.901625 C0.00417908177,192.164556 0.00417908177,190.733775 0.479079073,189.996707 C3.14582518,185.834436 5.77604052,181.672165 8.44278662,177.509894 C8.44278662,178.463748 8.44278662,179.460959 8.44278662,180.414812 C5.77604052,176.252542 3.14582518,172.090271 0.479079073,167.928 C0.199308637,167.493782 0.0843550006,166.818808 0.134218165,166.186743 C-0.102006483,165.497013 -0.0489640534,164.678593 0.475065609,163.856811 C3.11947116,159.686471 5.72765198,155.51613 8.37205753,151.34579 C8.37205753,152.301493 8.37205753,153.300637 8.37205753,154.25634 C5.72765198,150.085999 3.11947116,145.915659 0.475065609,141.745318 C0.00414407169,141.006821 0.00414407169,139.573266 0.475065609,138.834768 C3.11947116,134.664428 5.72765198,130.494087 8.37205753,126.323747 C8.37205753,127.27945 8.37205753,128.278594 8.37205753,129.234297 C5.72765198,125.063956 3.11947116,120.893616 0.475065609,116.723275 C0.00414407169,115.984778 0.00414407169,114.551223 0.475065609,113.812725 C3.11947116,109.642385 5.72765198,105.472044 8.37205753,101.301704 C8.37205753,102.257407 8.37205753,103.256551 8.37205753,104.212254 C5.72765198,100.041913 3.11947116,95.871573 0.475065609,91.7012325 C0.00414407169,90.9627347 0.00414407169,89.5291801 0.475065609,88.7906823 C3.11947116,84.6203419 5.72765198,80.4500014 8.37205753,76.2796609 C8.37205753,77.2353639 8.37205753,78.234508 8.37205753,79.190211 C5.72765198,75.0198705 3.11947116,70.84953 0.475065609,66.6791895 C0.00414407169,65.9406917 0.00414407169,64.5071372 0.475065609,63.7686394 C3.11947116,59.5982989 5.72765198,55.4279584 8.37205753,51.2576179 C8.37205753,52.2133209 8.37205753,53.212465 8.37205753,54.168168 C5.72765198,49.9978275 3.11947116,45.827487 0.475065609,41.6571465 C0.00414407169,40.9186487 0.00414407169,39.4850942 0.475065609,38.7465964 C3.11947116,34.5762559 5.72765198,30.4059154 8.37205753,26.2355749 C8.37205753,27.1912779 8.37205753,28.190422 8.37205753,29.146125 C5.72765198,24.9757845 3.11947116,20.8054441 0.475065609,16.6351036 C0.00414407169,15.8966058 0.00414407169,14.4630512 0.475065609,13.7245534 C3.11947116,9.55421292 5.72765198,5.38387243 8.37205753,1.21353193 C10.2195189,-1.69701821 14.3853633,1.17009089 12.5379019,4.12408207 C9.89349635,8.29442257 7.28531553,12.4647631 4.64090997,16.6351036 C4.64090997,15.6794005 4.64090997,14.6802565 4.64090997,13.7245534 C7.28531553,17.8948939 9.89349635,22.0652344 12.5379019,26.2355749 C13.0088234,26.9740727 13.0088234,28.4076272 12.5379019,29.146125 C9.89349635,33.3164655 7.28531553,37.486806 4.64090997,41.6571465 C4.64090997,40.7014435 4.64090997,39.7022994 4.64090997,38.7465964 C7.28531553,42.9169369 9.89349635,47.0872774 12.5379019,51.2576179 C13.0088234,51.9961157 13.0088234,53.4296702 12.5379019,54.168168 C9.89349635,58.3385085 7.28531553,62.508849 4.64090997,66.6791895 C4.64090997,65.7234865 4.64090997,64.7243424 4.64090997,63.7686394 C7.28531553,67.9389799 9.89349635,72.1093204 12.5379019,76.2796609 C13.0088234,77.0181587 13.0088234,78.4517132 12.5379019,79.190211 C9.89349635,83.3605515 7.28531553,87.530892 4.64090997,91.7012325 C4.64090997,90.7455295 4.64090997,89.7463854 4.64090997,88.7906823 C7.28531553,92.9610228 9.89349635,97.1313633 12.5379019,101.301704 C13.0088234,102.040202 13.0088234,103.473756 12.5379019,104.212254 C9.89349635,108.382594 7.28531553,112.552935 4.64090997,116.723275 C4.64090997,115.767572 4.64090997,114.768428 4.64090997,113.812725 C7.28531553,117.983066 9.89349635,122.153406 12.5379019,126.323747 C13.0088234,127.062245 13.0088234,128.495799 12.5379019,129.234297 C9.89349635,133.404637 7.28531553,137.574978 4.64090997,141.745318 C4.64090997,140.789615 4.64090997,139.790471 4.64090997,138.834768 C7.28531553,143.005109 9.89349635,147.175449 12.5379019,151.34579 C13.0088234,152.084288 13.0088234,153.517842 12.5379019,154.25634 C10.1912165,157.957163 7.87305829,161.657986 5.53279636,165.358809 C5.53625962,166.105464 5.28466252,166.984423 4.68011746,167.928 C4.68011746,167.526045 4.68011746,167.11639 4.68011746,166.705525 C4.85883101,166.423648 5.03738071,166.141772 5.21578891,165.859895 C7.69955913,169.743228 10.1557928,173.626561 12.643825,177.509894 C13.118725,178.246963 13.118725,179.677744 12.643825,180.414812 C9.9770789,184.577083 7.34686356,188.739354 4.68011746,192.901625 C4.68011746,191.947771 4.68011746,190.95056 4.68011746,189.996707 C7.34686356,194.158977 9.9770789,198.321248 12.643825,202.483519 C13.118725,203.220587 13.118725,204.651368 12.643825,205.388437 C9.9770789,209.550708 7.34686356,213.712978 4.68011746,217.875249 C4.68011746,216.921395 4.68011746,215.924185 4.68011746,214.970331 C7.34686356,219.132602 9.9770789,223.294872 12.643825,227.457143 C13.118725,228.194212 13.118725,229.624992 12.643825,230.362061 C9.9770789,234.524332 7.34686356,238.686603 4.68011746,242.848873 C4.68011746,241.89502 4.68011746,240.897809 4.68011746,239.943955 C7.34686356,244.106226 9.9770789,248.268497 12.643825,252.430768 C13.118725,253.167836 13.118725,254.598617 12.643825,255.335686 C9.9770789,259.497956 7.34686356,263.660227 4.68011746,267.822498 C4.68011746,266.868644 4.68011746,265.871433 4.68011746,264.91758 C7.34686356,269.07985 9.9770789,273.242121 12.643825,277.404392 C13.118725,278.141461 13.118725,279.572241 12.643825,280.30931 C9.9770789,284.471581 7.34686356,288.633851 4.68011746,292.796122 C4.68011746,291.842269 4.68011746,290.845058 4.68011746,289.891204 C7.34686356,294.053475 9.9770789,298.215746 12.643825,302.378016 C13.0288889,302.975655 13.1017308,304.029373 12.8623508,304.799563 C13.1005138,305.485763 13.0523206,306.301554 12.5379019,307.124082 C9.89349635,311.294423 7.28531553,315.464763 4.64090997,319.635104 C4.64090997,319.043318 4.64090997,318.434875 4.64090997,317.830404 C4.65409204,317.810467 4.66716216,317.790248 4.68011746,317.769747 C4.78457239,317.606713 4.88897127,317.443679 4.9933185,317.280645 C7.51724476,321.265622 10.0110353,325.250598 12.5379019,329.235575 C13.0088234,329.974073 13.0088234,331.407627 12.5379019,332.146125 C9.89349635,336.316466 7.28531553,340.486806 4.64090997,344.657147 C4.64090997,343.701444 4.64090997,342.702299 4.64090997,341.746596 C7.28531553,345.916937 9.89349635,350.087277 12.5379019,354.257618 C13.0088234,354.996116 13.0088234,356.42967 12.5379019,357.168168 C9.89349635,361.338509 7.28531553,365.508849 4.64090997,369.67919 C4.64090997,368.723486 4.64090997,367.724342 4.64090997,366.768639 C7.28531553,370.93898 9.89349635,375.10932 12.5379019,379.279661 C13.0088234,380.018159 13.0088234,381.451713 12.5379019,382.190211 C9.89349635,386.360551 7.28531553,390.530892 4.64090997,394.701232 C4.64090997,393.745529 4.64090997,392.746385 4.64090997,391.790682 C7.28531553,395.961023 9.89349635,400.131363 12.5379019,404.301704 C13.0088234,405.040202 13.0088234,406.473756 12.5379019,407.212254 C9.89349635,411.382594 7.28531553,415.552935 4.64090997,419.723275 C4.64090997,418.767572 4.64090997,417.768428 4.64090997,416.812725 C7.28531553,420.983066 9.89349635,425.153406 12.5379019,429.323747 C13.0088234,430.062245 13.0088234,431.495799 12.5379019,432.234297 C9.89349635,436.404637 7.28531553,440.574978 4.64090997,444.745318 C4.64090997,443.789615 4.64090997,442.790471 4.64090997,441.834768 C7.28531553,446.005109 9.89349635,450.175449 12.5379019,454.34579 C13.0088234,455.084288 13.0088234,456.517842 12.5379019,457.25634 C10.1912165,460.957163 7.87305829,464.657986 5.53279636,468.358809 Z" id="Combined-Shape"></path>
            </g>
        </g>
    </g>
</svg>