<svg width="318" height="66" viewBox="0 0 318 66" fill="none" xmlns="http://www.w3.org/2000/svg">
<g id="Group">
<g id="Group_2">
<path id="Vector" d="M38.0653 24.9556L24.9674 66.0003H0L13.0979 24.9556H38.0653Z" fill="#1CDEED"/>
<path id="Vector_2" d="M113.136 0L100.038 41.0448H75.0708L88.1687 0H113.136Z" fill="#1CDEED"/>
<path id="Vector_3" d="M113.466 66H79.329C72.5244 66 65.9984 63.2324 61.1868 58.3061L4.36035 0.124778L4.48543 0H38.376C45.1806 0 51.7066 2.76758 56.5182 7.69391L113.466 66Z" fill="#1CDEED"/>
<path id="Vector_4" d="M179.388 47.861L158.812 19.1204V47.861H156.02V14.4063H158.862L179.339 42.7456V14.4063H182.131V47.861H179.388V47.861Z" fill="white"/>
<path id="Vector_5" d="M213.58 14.4028H210.097L196.72 47.8556H199.963L203.194 39.6378L204.128 37.0277L211.814 17.4651L219.55 37.0277H206.109V39.6378H220.484L223.714 47.8556H226.958L213.58 14.4028Z" fill="white"/>
<path id="Vector_6" d="M247.457 47.861V17.0144H236.777V14.4063H260.978V17.0144H250.298V47.861H247.457Z" fill="white"/>
<path id="Vector_7" d="M276.554 47.861V14.4063H279.346V47.861H276.554V47.861Z" fill="white"/>
<path id="Vector_8" d="M297.278 14.4028V27.3239H300.067V17.0129H318V14.4028H297.278ZM297.278 29.4042V47.8556H300.067V32.0143H317.659V29.4042H297.278Z" fill="white"/>
</g>
</g>
</svg>
